<?xml version="1.0" encoding="UTF-8"?>
<svg id="Layer_2" data-name="Layer 2" xmlns="http://www.w3.org/2000/svg" viewBox="0 0 1224.92 274.11">
  <defs>
    <style>
      .cls-1 {
        fill: #fff;
      }
    </style>
  </defs>
  <g id="Layer_1-2" data-name="Layer 1">
    <g>
      <g>
        <path class="cls-1" d="m425.2,48.71c3.28,0,7.04.24,11.26.7v51.72c-5.16-.47-9.27-.7-12.31-.7-17.83,0-32.19,4.63-43.1,13.9-10.91,9.27-16.36,24.57-16.36,45.92v86.2h-50.31V52.93h50.31v33.78c11.96-25.33,32.13-38,60.51-38Z"/>
        <path class="cls-1" d="m603.22,52.93h50.31l-.35,193.51h-50.31v-26.04c-14.78,20.17-34.95,30.26-60.51,30.26s-46.68-9.44-63.33-28.33c-16.66-18.88-24.98-43.1-24.98-72.65s8.38-53.77,25.16-72.65c16.77-18.88,37.7-28.32,62.8-28.32s46.21,10.44,61.22,31.31v-27.09Zm-49.61,149.88c14.3,0,26.15-4.93,35.53-14.78,9.38-9.85,14.07-22.64,14.07-38.35s-4.69-28.5-14.07-38.35c-9.38-9.85-21.23-14.78-35.53-14.78s-26.04,4.93-35.18,14.78c-9.15,9.85-13.72,22.64-13.72,38.35s4.63,28.5,13.9,38.35c9.26,9.85,20.93,14.78,35.01,14.78Z"/>
        <path class="cls-1" d="m875.2,246.44h-64.39l-79.16-84.44v84.44h-50.31V0h50.31v133.5l73.54-80.57h64.03l-88.31,92.18,94.29,101.33Z"/>
        <path class="cls-1" d="m891.02,77.56c19.47-19.23,43.27-28.85,71.42-28.85s52.01,9.62,71.6,28.85c19.58,19.24,29.38,43.28,29.38,72.13s-9.68,53.19-29.03,72.3c-19.35,19.12-43.34,28.68-71.95,28.68s-52.25-9.62-71.6-28.85c-19.35-19.23-29.02-43.28-29.02-72.13s9.73-52.89,29.2-72.13Zm107.13,33.78c-9.5-9.85-21.41-14.78-35.71-14.78s-26.21,4.93-35.71,14.78c-9.5,9.85-14.25,22.64-14.25,38.35s4.75,28.5,14.25,38.35c9.5,9.85,21.4,14.78,35.71,14.78s26.21-4.93,35.71-14.78c9.5-9.85,14.25-22.64,14.25-38.35s-4.75-28.5-14.25-38.35Z"/>
        <path class="cls-1" d="m1084.88,246.44V0h50.32v246.44h-50.32Z"/>
        <path class="cls-1" d="m1168.26,246.44V52.93h50.31v193.51h-50.31Z"/>
        <path class="cls-1" d="m1224.92,0c0,8.67-2.94,15.83-8.8,21.44-5.88,5.64-13.38,8.46-22.54,8.46s-16.35-2.82-22.32-8.46c-6.01-5.61-8.98-12.77-8.98-21.44h62.63Z"/>
      </g>
      <g>
        <path class="cls-1" d="m106.09,204.13v69.97h68.59c9.72,0,19.03-3.86,25.9-10.73l47.46-47.46c6.87-6.87,10.73-16.19,10.73-25.9v-76.92h-69.97v91.04h-82.71Z"/>
        <path class="cls-1" d="m70.15,77.18h188.6V7.06H77.32c-10.22,0-20.03,4.06-27.26,11.29L11.29,57.13c-7.23,7.23-11.29,17.03-11.29,27.26v189.72h70.15V77.18Z"/>
      </g>
    </g>
  </g>
</svg>